<mxfile host="app.diagrams.net" agent="Mozilla/5.0 (Windows NT 10.0; Win64; x64) AppleWebKit/537.36 (KHTML, like Gecko) Chrome/140.0.0.0 Safari/537.36" version="28.2.3">
  <diagram id="prtHgNgQTEPvFCAcTncT" name="Page-1">
    <mxGraphModel dx="2911" dy="1122" grid="1" gridSize="10" guides="1" tooltips="1" connect="1" arrows="1" fold="1" page="1" pageScale="1" pageWidth="827" pageHeight="1169" math="0" shadow="0">
      <root>
        <mxCell id="0" />
        <mxCell id="1" parent="0" />
        <mxCell id="u61nChPnTZIYcf9fXKZg-8" value="" style="edgeStyle=orthogonalEdgeStyle;rounded=0;orthogonalLoop=1;jettySize=auto;html=1;fontSize=15;" parent="1" source="u61nChPnTZIYcf9fXKZg-1" target="u61nChPnTZIYcf9fXKZg-4" edge="1">
          <mxGeometry relative="1" as="geometry">
            <Array as="points">
              <mxPoint x="463" y="150" />
              <mxPoint x="160" y="150" />
            </Array>
          </mxGeometry>
        </mxCell>
        <mxCell id="XOETR62jReSr2iunTLXM-18" style="edgeStyle=orthogonalEdgeStyle;rounded=0;orthogonalLoop=1;jettySize=auto;html=1;entryX=0.5;entryY=0;entryDx=0;entryDy=0;fontSize=15;" edge="1" parent="1" source="u61nChPnTZIYcf9fXKZg-1" target="u61nChPnTZIYcf9fXKZg-2">
          <mxGeometry relative="1" as="geometry">
            <Array as="points">
              <mxPoint x="463" y="150" />
              <mxPoint x="-120" y="150" />
            </Array>
          </mxGeometry>
        </mxCell>
        <mxCell id="XOETR62jReSr2iunTLXM-30" style="edgeStyle=orthogonalEdgeStyle;rounded=0;orthogonalLoop=1;jettySize=auto;html=1;fontSize=15;" edge="1" parent="1" source="u61nChPnTZIYcf9fXKZg-1" target="u61nChPnTZIYcf9fXKZg-5">
          <mxGeometry relative="1" as="geometry">
            <Array as="points">
              <mxPoint x="463" y="150" />
              <mxPoint x="620" y="150" />
            </Array>
          </mxGeometry>
        </mxCell>
        <mxCell id="XOETR62jReSr2iunTLXM-58" style="edgeStyle=orthogonalEdgeStyle;rounded=0;orthogonalLoop=1;jettySize=auto;html=1;fontSize=15;" edge="1" parent="1" source="u61nChPnTZIYcf9fXKZg-1" target="XOETR62jReSr2iunTLXM-57">
          <mxGeometry relative="1" as="geometry">
            <Array as="points">
              <mxPoint x="463" y="150" />
              <mxPoint x="1065" y="150" />
            </Array>
          </mxGeometry>
        </mxCell>
        <mxCell id="u61nChPnTZIYcf9fXKZg-1" value="&lt;font&gt;OrderFood Website&lt;/font&gt;" style="rounded=0;whiteSpace=wrap;html=1;fillColor=#fff2cc;strokeColor=#d6b656;fontSize=15;" parent="1" vertex="1">
          <mxGeometry x="390" y="20" width="146" height="70" as="geometry" />
        </mxCell>
        <mxCell id="XOETR62jReSr2iunTLXM-5" style="edgeStyle=orthogonalEdgeStyle;rounded=0;orthogonalLoop=1;jettySize=auto;html=1;entryX=0;entryY=0.75;entryDx=0;entryDy=0;fontSize=15;" edge="1" parent="1" source="u61nChPnTZIYcf9fXKZg-2" target="XOETR62jReSr2iunTLXM-2">
          <mxGeometry relative="1" as="geometry">
            <Array as="points">
              <mxPoint x="-120" y="485" />
            </Array>
          </mxGeometry>
        </mxCell>
        <mxCell id="XOETR62jReSr2iunTLXM-6" style="edgeStyle=orthogonalEdgeStyle;rounded=0;orthogonalLoop=1;jettySize=auto;html=1;entryX=0;entryY=0.5;entryDx=0;entryDy=0;fontSize=15;" edge="1" parent="1" source="u61nChPnTZIYcf9fXKZg-2" target="XOETR62jReSr2iunTLXM-3">
          <mxGeometry relative="1" as="geometry" />
        </mxCell>
        <mxCell id="XOETR62jReSr2iunTLXM-7" style="edgeStyle=orthogonalEdgeStyle;rounded=0;orthogonalLoop=1;jettySize=auto;html=1;entryX=0.003;entryY=0.38;entryDx=0;entryDy=0;entryPerimeter=0;fontSize=15;" edge="1" parent="1" source="u61nChPnTZIYcf9fXKZg-2" target="XOETR62jReSr2iunTLXM-4">
          <mxGeometry relative="1" as="geometry">
            <Array as="points">
              <mxPoint x="-120" y="683" />
            </Array>
          </mxGeometry>
        </mxCell>
        <mxCell id="u61nChPnTZIYcf9fXKZg-2" value="&lt;font&gt;1.Khời động dự án&lt;/font&gt;" style="rounded=0;whiteSpace=wrap;html=1;fillColor=#f5f5f5;fontColor=#333333;strokeColor=#666666;fontSize=15;" parent="1" vertex="1">
          <mxGeometry x="-190" y="310" width="140" height="70" as="geometry" />
        </mxCell>
        <mxCell id="XOETR62jReSr2iunTLXM-12" value="" style="edgeStyle=orthogonalEdgeStyle;rounded=0;orthogonalLoop=1;jettySize=auto;html=1;fontSize=15;" edge="1" parent="1" source="u61nChPnTZIYcf9fXKZg-4" target="XOETR62jReSr2iunTLXM-9">
          <mxGeometry relative="1" as="geometry">
            <Array as="points">
              <mxPoint x="120" y="470" />
            </Array>
          </mxGeometry>
        </mxCell>
        <mxCell id="XOETR62jReSr2iunTLXM-15" style="edgeStyle=orthogonalEdgeStyle;rounded=0;orthogonalLoop=1;jettySize=auto;html=1;fontSize=15;" edge="1" parent="1" source="u61nChPnTZIYcf9fXKZg-4" target="XOETR62jReSr2iunTLXM-10">
          <mxGeometry relative="1" as="geometry">
            <Array as="points">
              <mxPoint x="120" y="580" />
            </Array>
          </mxGeometry>
        </mxCell>
        <mxCell id="XOETR62jReSr2iunTLXM-16" style="edgeStyle=orthogonalEdgeStyle;rounded=0;orthogonalLoop=1;jettySize=auto;html=1;entryX=0;entryY=0.75;entryDx=0;entryDy=0;fontSize=15;" edge="1" parent="1" source="u61nChPnTZIYcf9fXKZg-4" target="XOETR62jReSr2iunTLXM-11">
          <mxGeometry relative="1" as="geometry">
            <Array as="points">
              <mxPoint x="120" y="705" />
            </Array>
          </mxGeometry>
        </mxCell>
        <mxCell id="u61nChPnTZIYcf9fXKZg-4" value="&lt;font&gt;2. Yêu cầu và phân tích&lt;/font&gt;" style="rounded=0;whiteSpace=wrap;html=1;fillColor=#f5f5f5;fontColor=#333333;strokeColor=#666666;fontSize=15;" parent="1" vertex="1">
          <mxGeometry x="90" y="307.5" width="140" height="72.5" as="geometry" />
        </mxCell>
        <mxCell id="XOETR62jReSr2iunTLXM-35" style="edgeStyle=orthogonalEdgeStyle;rounded=0;orthogonalLoop=1;jettySize=auto;html=1;entryX=0;entryY=0.75;entryDx=0;entryDy=0;fontSize=15;" edge="1" parent="1" source="u61nChPnTZIYcf9fXKZg-5" target="XOETR62jReSr2iunTLXM-31">
          <mxGeometry relative="1" as="geometry">
            <Array as="points">
              <mxPoint x="590" y="455" />
            </Array>
          </mxGeometry>
        </mxCell>
        <mxCell id="XOETR62jReSr2iunTLXM-36" style="edgeStyle=orthogonalEdgeStyle;rounded=0;orthogonalLoop=1;jettySize=auto;html=1;entryX=0;entryY=0.75;entryDx=0;entryDy=0;fontSize=15;" edge="1" parent="1" source="u61nChPnTZIYcf9fXKZg-5" target="XOETR62jReSr2iunTLXM-32">
          <mxGeometry relative="1" as="geometry">
            <Array as="points">
              <mxPoint x="590" y="690" />
              <mxPoint x="630" y="690" />
            </Array>
          </mxGeometry>
        </mxCell>
        <mxCell id="XOETR62jReSr2iunTLXM-37" style="edgeStyle=orthogonalEdgeStyle;rounded=0;orthogonalLoop=1;jettySize=auto;html=1;entryX=0;entryY=0.5;entryDx=0;entryDy=0;fontSize=15;" edge="1" parent="1" source="u61nChPnTZIYcf9fXKZg-5" target="XOETR62jReSr2iunTLXM-33">
          <mxGeometry relative="1" as="geometry">
            <Array as="points">
              <mxPoint x="590" y="870" />
            </Array>
          </mxGeometry>
        </mxCell>
        <mxCell id="XOETR62jReSr2iunTLXM-38" style="edgeStyle=orthogonalEdgeStyle;rounded=0;orthogonalLoop=1;jettySize=auto;html=1;entryX=0;entryY=0.5;entryDx=0;entryDy=0;fontSize=15;" edge="1" parent="1" source="u61nChPnTZIYcf9fXKZg-5" target="XOETR62jReSr2iunTLXM-34">
          <mxGeometry relative="1" as="geometry">
            <Array as="points">
              <mxPoint x="590" y="1020" />
              <mxPoint x="630" y="1020" />
            </Array>
          </mxGeometry>
        </mxCell>
        <mxCell id="u61nChPnTZIYcf9fXKZg-5" value="&lt;font&gt;4. Phát triển hệ thống&lt;/font&gt;" style="rounded=0;whiteSpace=wrap;html=1;fillColor=#f5f5f5;fontColor=#333333;strokeColor=#666666;fontSize=15;" parent="1" vertex="1">
          <mxGeometry x="560" y="300" width="150" height="76.25" as="geometry" />
        </mxCell>
        <mxCell id="XOETR62jReSr2iunTLXM-25" style="edgeStyle=orthogonalEdgeStyle;rounded=0;orthogonalLoop=1;jettySize=auto;html=1;entryX=0;entryY=0.75;entryDx=0;entryDy=0;fontSize=15;" edge="1" parent="1" source="XOETR62jReSr2iunTLXM-1" target="XOETR62jReSr2iunTLXM-21">
          <mxGeometry relative="1" as="geometry">
            <Array as="points">
              <mxPoint x="360" y="455" />
            </Array>
          </mxGeometry>
        </mxCell>
        <mxCell id="XOETR62jReSr2iunTLXM-26" style="edgeStyle=orthogonalEdgeStyle;rounded=0;orthogonalLoop=1;jettySize=auto;html=1;entryX=0;entryY=0.75;entryDx=0;entryDy=0;fontSize=15;" edge="1" parent="1" source="XOETR62jReSr2iunTLXM-1" target="XOETR62jReSr2iunTLXM-22">
          <mxGeometry relative="1" as="geometry">
            <Array as="points">
              <mxPoint x="360" y="545" />
            </Array>
          </mxGeometry>
        </mxCell>
        <mxCell id="XOETR62jReSr2iunTLXM-28" style="edgeStyle=orthogonalEdgeStyle;rounded=0;orthogonalLoop=1;jettySize=auto;html=1;fontSize=15;" edge="1" parent="1" source="XOETR62jReSr2iunTLXM-1" target="XOETR62jReSr2iunTLXM-23">
          <mxGeometry relative="1" as="geometry">
            <Array as="points">
              <mxPoint x="360" y="630" />
            </Array>
          </mxGeometry>
        </mxCell>
        <mxCell id="XOETR62jReSr2iunTLXM-29" style="edgeStyle=orthogonalEdgeStyle;rounded=0;orthogonalLoop=1;jettySize=auto;html=1;fontSize=15;" edge="1" parent="1" source="XOETR62jReSr2iunTLXM-1" target="XOETR62jReSr2iunTLXM-24">
          <mxGeometry relative="1" as="geometry">
            <Array as="points">
              <mxPoint x="360" y="730" />
            </Array>
          </mxGeometry>
        </mxCell>
        <mxCell id="XOETR62jReSr2iunTLXM-1" value="&lt;font&gt;3. Thiết kế hệ thống&lt;/font&gt;" style="rounded=0;whiteSpace=wrap;html=1;fillColor=#f5f5f5;fontColor=#333333;strokeColor=#666666;fontSize=15;" vertex="1" parent="1">
          <mxGeometry x="320" y="305" width="150" height="75" as="geometry" />
        </mxCell>
        <mxCell id="XOETR62jReSr2iunTLXM-2" value="&lt;font&gt;1.1 Project Charter&lt;/font&gt;" style="rounded=0;whiteSpace=wrap;html=1;fillColor=#dae8fc;strokeColor=#6c8ebf;fontSize=15;" vertex="1" parent="1">
          <mxGeometry x="-75" y="440" width="135" height="60" as="geometry" />
        </mxCell>
        <mxCell id="XOETR62jReSr2iunTLXM-3" value="&lt;font&gt;1.2 Sơ đồ grant, milestone&lt;/font&gt;" style="rounded=0;whiteSpace=wrap;html=1;fillColor=#dae8fc;strokeColor=#6c8ebf;fontSize=15;" vertex="1" parent="1">
          <mxGeometry x="-75" y="550" width="135" height="60" as="geometry" />
        </mxCell>
        <mxCell id="XOETR62jReSr2iunTLXM-4" value="&lt;font&gt;1.3 Thiết lập môi trường&amp;nbsp;&lt;/font&gt;" style="rounded=0;whiteSpace=wrap;html=1;fillColor=#dae8fc;strokeColor=#6c8ebf;fontSize=15;" vertex="1" parent="1">
          <mxGeometry x="-75" y="660" width="135" height="60" as="geometry" />
        </mxCell>
        <mxCell id="XOETR62jReSr2iunTLXM-9" value="&lt;font&gt;2.1 Thu thập yêu cầu&lt;/font&gt;" style="rounded=0;whiteSpace=wrap;html=1;fillColor=#dae8fc;strokeColor=#6c8ebf;fontSize=15;" vertex="1" parent="1">
          <mxGeometry x="160" y="440" width="150" height="60" as="geometry" />
        </mxCell>
        <mxCell id="XOETR62jReSr2iunTLXM-10" value="&lt;font&gt;2.2 Thiết kế lược đồ Use Case&lt;/font&gt;" style="rounded=0;whiteSpace=wrap;html=1;fillColor=#dae8fc;strokeColor=#6c8ebf;fontSize=15;" vertex="1" parent="1">
          <mxGeometry x="160" y="550" width="150" height="60" as="geometry" />
        </mxCell>
        <mxCell id="XOETR62jReSr2iunTLXM-11" value="&lt;font&gt;2.3 Viết tài liệu đặc tả Use Case&lt;/font&gt;" style="rounded=0;whiteSpace=wrap;html=1;fillColor=#dae8fc;strokeColor=#6c8ebf;fontSize=15;" vertex="1" parent="1">
          <mxGeometry x="160" y="660" width="150" height="60" as="geometry" />
        </mxCell>
        <mxCell id="XOETR62jReSr2iunTLXM-20" style="edgeStyle=orthogonalEdgeStyle;rounded=0;orthogonalLoop=1;jettySize=auto;html=1;entryX=0.5;entryY=0;entryDx=0;entryDy=0;fontSize=15;" edge="1" parent="1" source="u61nChPnTZIYcf9fXKZg-1" target="XOETR62jReSr2iunTLXM-1">
          <mxGeometry relative="1" as="geometry">
            <mxPoint x="463" y="300" as="targetPoint" />
            <Array as="points">
              <mxPoint x="463" y="150" />
              <mxPoint x="395" y="150" />
            </Array>
          </mxGeometry>
        </mxCell>
        <mxCell id="XOETR62jReSr2iunTLXM-21" value="&lt;font&gt;3.1 Thiết kế Class Diagram&lt;/font&gt;" style="rounded=0;whiteSpace=wrap;html=1;fillColor=#dae8fc;strokeColor=#6c8ebf;fontSize=15;" vertex="1" parent="1">
          <mxGeometry x="400" y="410" width="150" height="60" as="geometry" />
        </mxCell>
        <mxCell id="XOETR62jReSr2iunTLXM-22" value="&lt;font&gt;3.2 Thiết kế lược đồ CSDL&lt;/font&gt;" style="rounded=0;whiteSpace=wrap;html=1;fillColor=#dae8fc;strokeColor=#6c8ebf;fontSize=15;" vertex="1" parent="1">
          <mxGeometry x="400" y="500" width="150" height="60" as="geometry" />
        </mxCell>
        <mxCell id="XOETR62jReSr2iunTLXM-23" value="&lt;font&gt;3.3 Thiết kế Activity Diagram&lt;/font&gt;" style="rounded=0;whiteSpace=wrap;html=1;fillColor=#dae8fc;strokeColor=#6c8ebf;fontSize=15;" vertex="1" parent="1">
          <mxGeometry x="400" y="600" width="150" height="60" as="geometry" />
        </mxCell>
        <mxCell id="XOETR62jReSr2iunTLXM-24" value="&lt;font&gt;3.3 Thiết kế Sequence Diagram&lt;/font&gt;" style="rounded=0;whiteSpace=wrap;html=1;fillColor=#dae8fc;strokeColor=#6c8ebf;fontSize=15;" vertex="1" parent="1">
          <mxGeometry x="400" y="700" width="150" height="60" as="geometry" />
        </mxCell>
        <mxCell id="XOETR62jReSr2iunTLXM-46" style="edgeStyle=orthogonalEdgeStyle;rounded=0;orthogonalLoop=1;jettySize=auto;html=1;entryX=0;entryY=0.75;entryDx=0;entryDy=0;fontSize=15;" edge="1" parent="1" source="XOETR62jReSr2iunTLXM-31" target="XOETR62jReSr2iunTLXM-40">
          <mxGeometry relative="1" as="geometry" />
        </mxCell>
        <mxCell id="XOETR62jReSr2iunTLXM-31" value="&lt;font&gt;3.1 Phát triển backend&lt;/font&gt;" style="rounded=0;whiteSpace=wrap;html=1;fillColor=#dae8fc;strokeColor=#6c8ebf;fontSize=15;" vertex="1" parent="1">
          <mxGeometry x="630" y="410" width="150" height="60" as="geometry" />
        </mxCell>
        <mxCell id="XOETR62jReSr2iunTLXM-49" style="edgeStyle=orthogonalEdgeStyle;rounded=0;orthogonalLoop=1;jettySize=auto;html=1;fontSize=15;" edge="1" parent="1" source="XOETR62jReSr2iunTLXM-32" target="XOETR62jReSr2iunTLXM-47">
          <mxGeometry relative="1" as="geometry" />
        </mxCell>
        <mxCell id="XOETR62jReSr2iunTLXM-50" style="edgeStyle=orthogonalEdgeStyle;rounded=0;orthogonalLoop=1;jettySize=auto;html=1;entryX=0;entryY=0.5;entryDx=0;entryDy=0;fontSize=15;" edge="1" parent="1" source="XOETR62jReSr2iunTLXM-32" target="XOETR62jReSr2iunTLXM-48">
          <mxGeometry relative="1" as="geometry" />
        </mxCell>
        <mxCell id="XOETR62jReSr2iunTLXM-32" value="&lt;font&gt;3.2 Phát triển frontend&lt;/font&gt;" style="rounded=0;whiteSpace=wrap;html=1;fillColor=#dae8fc;strokeColor=#6c8ebf;fontSize=15;" vertex="1" parent="1">
          <mxGeometry x="630" y="645" width="150" height="60" as="geometry" />
        </mxCell>
        <mxCell id="XOETR62jReSr2iunTLXM-55" style="edgeStyle=orthogonalEdgeStyle;rounded=0;orthogonalLoop=1;jettySize=auto;html=1;entryX=0;entryY=0.5;entryDx=0;entryDy=0;fontSize=15;" edge="1" parent="1" source="XOETR62jReSr2iunTLXM-33" target="XOETR62jReSr2iunTLXM-52">
          <mxGeometry relative="1" as="geometry" />
        </mxCell>
        <mxCell id="XOETR62jReSr2iunTLXM-56" style="edgeStyle=orthogonalEdgeStyle;rounded=0;orthogonalLoop=1;jettySize=auto;html=1;entryX=0;entryY=0.75;entryDx=0;entryDy=0;fontSize=15;" edge="1" parent="1" source="XOETR62jReSr2iunTLXM-33" target="XOETR62jReSr2iunTLXM-53">
          <mxGeometry relative="1" as="geometry" />
        </mxCell>
        <mxCell id="XOETR62jReSr2iunTLXM-33" value="&lt;font&gt;3.3 Phát triển hạ tầng&lt;/font&gt;" style="rounded=0;whiteSpace=wrap;html=1;fillColor=#dae8fc;strokeColor=#6c8ebf;fontSize=15;" vertex="1" parent="1">
          <mxGeometry x="630" y="840" width="150" height="60" as="geometry" />
        </mxCell>
        <mxCell id="XOETR62jReSr2iunTLXM-34" value="&lt;font&gt;3.4 Kiểm thử chức năng&lt;/font&gt;" style="rounded=0;whiteSpace=wrap;html=1;fillColor=#dae8fc;strokeColor=#6c8ebf;fontSize=15;" vertex="1" parent="1">
          <mxGeometry x="630" y="990" width="150" height="60" as="geometry" />
        </mxCell>
        <mxCell id="XOETR62jReSr2iunTLXM-40" value="&lt;font&gt;3.1.3 Báo cáo, phân tích biểu đồ&lt;/font&gt;" style="rounded=0;whiteSpace=wrap;html=1;fillColor=#f8cecc;strokeColor=#b85450;fontSize=15;" vertex="1" parent="1">
          <mxGeometry x="850" y="585" width="150" height="60" as="geometry" />
        </mxCell>
        <mxCell id="XOETR62jReSr2iunTLXM-41" value="&lt;font&gt;3.1.1 Quản lý người dùng, nhà hàng&lt;/font&gt;" style="rounded=0;whiteSpace=wrap;html=1;fillColor=#f8cecc;strokeColor=#b85450;fontSize=15;" vertex="1" parent="1">
          <mxGeometry x="850" y="420" width="150" height="60" as="geometry" />
        </mxCell>
        <mxCell id="XOETR62jReSr2iunTLXM-42" value="&lt;font&gt;3.1.2 Tích hợp thanh toán&lt;/font&gt;" style="rounded=0;whiteSpace=wrap;html=1;fillColor=#f8cecc;strokeColor=#b85450;fontSize=15;" vertex="1" parent="1">
          <mxGeometry x="850" y="500" width="150" height="60" as="geometry" />
        </mxCell>
        <mxCell id="XOETR62jReSr2iunTLXM-44" style="edgeStyle=orthogonalEdgeStyle;rounded=0;orthogonalLoop=1;jettySize=auto;html=1;entryX=0;entryY=0.333;entryDx=0;entryDy=0;entryPerimeter=0;fontSize=15;" edge="1" parent="1" source="XOETR62jReSr2iunTLXM-31" target="XOETR62jReSr2iunTLXM-41">
          <mxGeometry relative="1" as="geometry" />
        </mxCell>
        <mxCell id="XOETR62jReSr2iunTLXM-45" style="edgeStyle=orthogonalEdgeStyle;rounded=0;orthogonalLoop=1;jettySize=auto;html=1;entryX=0;entryY=0.667;entryDx=0;entryDy=0;entryPerimeter=0;fontSize=15;" edge="1" parent="1" source="XOETR62jReSr2iunTLXM-31" target="XOETR62jReSr2iunTLXM-42">
          <mxGeometry relative="1" as="geometry" />
        </mxCell>
        <mxCell id="XOETR62jReSr2iunTLXM-47" value="&lt;font&gt;3.2.1 Thiết kế giao diện cho khách hàng, chủ nhà hàng&lt;/font&gt;" style="rounded=0;whiteSpace=wrap;html=1;fillColor=#f8cecc;strokeColor=#b85450;fontSize=15;" vertex="1" parent="1">
          <mxGeometry x="850" y="680" width="150" height="60" as="geometry" />
        </mxCell>
        <mxCell id="XOETR62jReSr2iunTLXM-48" value="&lt;font&gt;3.2.2 Tích hợp UI, gọi Api xử lý logic&lt;/font&gt;" style="rounded=0;whiteSpace=wrap;html=1;fillColor=#f8cecc;strokeColor=#b85450;fontSize=15;" vertex="1" parent="1">
          <mxGeometry x="850" y="760" width="150" height="60" as="geometry" />
        </mxCell>
        <mxCell id="XOETR62jReSr2iunTLXM-52" value="&lt;font&gt;3.3.1 CI/CD (build - test)&lt;/font&gt;" style="rounded=0;whiteSpace=wrap;html=1;fillColor=#f8cecc;strokeColor=#b85450;fontSize=15;" vertex="1" parent="1">
          <mxGeometry x="850" y="870" width="150" height="60" as="geometry" />
        </mxCell>
        <mxCell id="XOETR62jReSr2iunTLXM-53" value="&lt;font&gt;3.2.2 Môi trường chạy (docker/container)&lt;/font&gt;" style="rounded=0;whiteSpace=wrap;html=1;fillColor=#f8cecc;strokeColor=#b85450;fontSize=15;" vertex="1" parent="1">
          <mxGeometry x="850" y="950" width="150" height="60" as="geometry" />
        </mxCell>
        <mxCell id="XOETR62jReSr2iunTLXM-64" style="edgeStyle=orthogonalEdgeStyle;rounded=0;orthogonalLoop=1;jettySize=auto;html=1;entryX=0;entryY=0.75;entryDx=0;entryDy=0;fontSize=15;" edge="1" parent="1" source="XOETR62jReSr2iunTLXM-57" target="XOETR62jReSr2iunTLXM-59">
          <mxGeometry relative="1" as="geometry" />
        </mxCell>
        <mxCell id="XOETR62jReSr2iunTLXM-65" style="edgeStyle=orthogonalEdgeStyle;rounded=0;orthogonalLoop=1;jettySize=auto;html=1;entryX=0;entryY=0.75;entryDx=0;entryDy=0;fontSize=15;" edge="1" parent="1" source="XOETR62jReSr2iunTLXM-57" target="XOETR62jReSr2iunTLXM-60">
          <mxGeometry relative="1" as="geometry" />
        </mxCell>
        <mxCell id="XOETR62jReSr2iunTLXM-66" style="edgeStyle=orthogonalEdgeStyle;rounded=0;orthogonalLoop=1;jettySize=auto;html=1;entryX=0;entryY=0.5;entryDx=0;entryDy=0;fontSize=15;" edge="1" parent="1" source="XOETR62jReSr2iunTLXM-57" target="XOETR62jReSr2iunTLXM-61">
          <mxGeometry relative="1" as="geometry" />
        </mxCell>
        <mxCell id="XOETR62jReSr2iunTLXM-67" style="edgeStyle=orthogonalEdgeStyle;rounded=0;orthogonalLoop=1;jettySize=auto;html=1;entryX=0;entryY=0.5;entryDx=0;entryDy=0;fontSize=15;" edge="1" parent="1" source="XOETR62jReSr2iunTLXM-57" target="XOETR62jReSr2iunTLXM-63">
          <mxGeometry relative="1" as="geometry" />
        </mxCell>
        <mxCell id="XOETR62jReSr2iunTLXM-57" value="&lt;font&gt;5. Quản lý và triển khai dự án&lt;/font&gt;" style="rounded=0;whiteSpace=wrap;html=1;fillColor=#f5f5f5;fontColor=#333333;strokeColor=#666666;fontSize=15;" vertex="1" parent="1">
          <mxGeometry x="990" y="300" width="150" height="76.25" as="geometry" />
        </mxCell>
        <mxCell id="XOETR62jReSr2iunTLXM-59" value="&lt;font&gt;&amp;nbsp;5.1 Triển khai dự án lên Internet&lt;/font&gt;" style="rounded=0;whiteSpace=wrap;html=1;fillColor=#dae8fc;strokeColor=#6c8ebf;fontSize=15;" vertex="1" parent="1">
          <mxGeometry x="1091" y="410" width="150" height="60" as="geometry" />
        </mxCell>
        <mxCell id="XOETR62jReSr2iunTLXM-60" value="&lt;font&gt;5.2 Lập wbs, sơ đồ grant và milestone&lt;/font&gt;" style="rounded=0;whiteSpace=wrap;html=1;fillColor=#dae8fc;strokeColor=#6c8ebf;fontSize=15;" vertex="1" parent="1">
          <mxGeometry x="1091" y="510" width="150" height="60" as="geometry" />
        </mxCell>
        <mxCell id="XOETR62jReSr2iunTLXM-61" value="&lt;font&gt;&amp;nbsp; &amp;nbsp;5.3 Quản lý rủi ro, báo cáo tiến độ&lt;/font&gt;" style="rounded=0;whiteSpace=wrap;html=1;fillColor=#dae8fc;strokeColor=#6c8ebf;fontSize=15;" vertex="1" parent="1">
          <mxGeometry x="1091" y="610" width="150" height="60" as="geometry" />
        </mxCell>
        <mxCell id="XOETR62jReSr2iunTLXM-63" value="&lt;font&gt;&amp;nbsp;5.4 Tổng kết và báo cáo dự án&lt;/font&gt;" style="rounded=0;whiteSpace=wrap;html=1;fillColor=#dae8fc;strokeColor=#6c8ebf;fontSize=15;" vertex="1" parent="1">
          <mxGeometry x="1091" y="705" width="150" height="60" as="geometry" />
        </mxCell>
      </root>
    </mxGraphModel>
  </diagram>
</mxfile>
